<svg width="48" height="48" viewBox="0 0 48 48" fill="none" xmlns="http://www.w3.org/2000/svg">
<path d="M38.4545 37.3432L39.9445 38.7205C37.631 41.2242 34.7382 43.1847 31.4788 44.3889L30.7764 42.4849C33.7326 41.3925 36.3564 39.6142 38.4545 37.3432ZM23.9171 43.7061C22.0573 43.7061 20.2572 43.4495 18.5506 42.9697L17.9997 44.9229C19.8814 45.4522 21.8662 45.7351 23.9171 45.7351C25.9732 45.7351 27.963 45.4506 29.8491 44.9189L29.2982 42.9655C27.5874 43.4481 25.7823 43.7061 23.9171 43.7061ZM9.38844 37.3527L7.89851 38.73C10.2138 41.2328 13.1084 43.1919 16.3694 44.3942L17.0719 42.4902C14.1141 41.3997 11.4886 39.6228 9.38844 37.3527ZM41.0572 37.418C43.9865 33.704 45.7346 29.0149 45.7346 23.9176C45.7346 11.8681 35.9666 2.1001 23.9171 2.1001C11.8676 2.1001 2.09961 11.8681 2.09961 23.9176C2.09961 29.0194 3.85071 33.7121 6.78466 37.4277L8.37797 36.1712C5.71687 32.8012 4.12864 28.5449 4.12864 23.9176C4.12864 12.9887 12.9882 4.12913 23.9171 4.12913C34.846 4.12913 43.7056 12.9887 43.7056 23.9176C43.7056 28.5405 42.1203 32.7932 39.4638 36.1617L41.0572 37.418ZM37.5926 26.2842V29.364L24.4669 36.9421V33.8626L34.926 27.8241L30.8259 25.4569L21.8 30.668L21.8 38.4818L19.1332 36.9421V32.2077L15.0331 34.5749L12.3652 33.0346V14.7997L15.033 13.2594L19.1332 15.6266V10.8922L21.8 9.35248L27.1338 12.4319V15.5114L21.8 12.4319V17.1663L27.1338 20.2458V23.3252L21.8 20.2458V27.5886L34.9261 20.0102L29.8007 17.0511V13.9717L37.5926 18.4703V21.5502L33.4928 23.9172L37.5926 26.2842ZM19.1332 18.7061L15.0321 16.3383V31.496L19.1332 29.1283V18.7061Z" fill="#004941"/>
</svg>
